<svg width="48" height="48" viewBox="0 0 48 48" fill="none" xmlns="http://www.w3.org/2000/svg">
<path d="M42 38.0001L31.692 27.6921C33.5976 24.7959 34.3609 21.2956 33.834 17.869C33.3071 14.4423 31.5275 11.3331 28.8397 9.14319C26.152 6.95331 22.7473 5.83858 19.2849 6.01482C15.8225 6.19106 12.5486 7.64574 10.0971 10.0972C7.64562 12.5487 6.19094 15.8226 6.0147 19.285C5.83845 22.7474 6.95319 26.1521 9.14307 28.8398C11.333 31.5276 14.4422 33.3072 17.8688 33.8341C21.2955 34.361 24.7958 33.5977 27.692 31.6921L38 42.0001L42 38.0001ZM9.99995 20.0001C9.99995 14.4861 14.486 10.0001 20 10.0001C25.514 10.0001 30 14.4861 30 20.0001C30 25.5141 25.514 30.0001 20 30.0001C14.486 30.0001 9.99995 25.5141 9.99995 20.0001Z" fill="white"/>
</svg>
