<svg width="48" height="48" viewBox="0 0 48 48" fill="none" xmlns="http://www.w3.org/2000/svg">
<path d="M43.644 14.862C43.46 14.5962 43.2144 14.3789 42.9281 14.2287C42.6417 14.0786 42.3233 14.0001 42 14H14.666L12.358 8.46001C12.0554 7.73045 11.5429 7.10719 10.8856 6.66923C10.2284 6.23128 9.45583 5.99836 8.666 6.00001H4V10H8.666L18.154 32.77C18.306 33.1343 18.5624 33.4455 18.8908 33.6644C19.2193 33.8833 19.6053 34 20 34H36C36.834 34 37.58 33.482 37.874 32.704L43.874 16.704C43.9874 16.4012 44.0257 16.0755 43.9856 15.7547C43.9456 15.4339 43.8284 15.1276 43.644 14.862ZM34.614 30H21.334L16.334 18H39.114L34.614 30Z" fill="white"/>
<path d="M21 42C22.6569 42 24 40.6569 24 39C24 37.3431 22.6569 36 21 36C19.3431 36 18 37.3431 18 39C18 40.6569 19.3431 42 21 42Z" fill="white"/>
<path d="M35 42C36.6569 42 38 40.6569 38 39C38 37.3431 36.6569 36 35 36C33.3431 36 32 37.3431 32 39C32 40.6569 33.3431 42 35 42Z" fill="white"/>
</svg>
